<?xml version="1.0"?>
<svg xmlns="http://www.w3.org/2000/svg" viewBox="0 0 64 64" width="512" height="512"><g id="Email-2" data-name="Email"><path d="M52,34.586V5a1,1,0,0,0-1-1H13a1,1,0,0,0-1,1V34.586l1.281,1.281a18.975,18.975,0,0,1,37.438,0ZM48,18H16V16H48Zm0-4H16V12H48Zm0-4H16V8H48Z"/><path d="M33.445,30.168a1,1,0,0,1,1.262.125L36.414,32H37V31a5,5,0,0,0-10,0v1h3.7Z"/><polygon points="4.414 27 10 32.586 10 21.414 4.414 27"/><path d="M32,39a4,4,0,0,0,4-4V34a1,1,0,0,1-.707-.293l-1.42-1.42-2.318,1.545A1.006,1.006,0,0,1,31,34H28v1A4,4,0,0,0,32,39Z"/><polygon points="54 32.586 59.586 27 54 21.414 54 32.586"/><path d="M4,59a1,1,0,0,0,1,1H59a1,1,0,0,0,1-1V29.414l-8.293,8.293A1,1,0,0,1,51,38h-.051c.018.333.051.662.051,1a19,19,0,0,1-38,0c0-.338.033-.667.051-1H13a1,1,0,0,1-.707-.293L4,29.414Z"/><path d="M31,40.91v1.676l1,1,1-1V40.91a5.6,5.6,0,0,1-2,0Z"/><path d="M32,22A17,17,0,1,0,49,39,17.019,17.019,0,0,0,32,22ZM43,51a1,1,0,0,1-1,1H22a1,1,0,0,1-1-1V50a6.765,6.765,0,0,1,4.39-6.336L29,42.308v-2.12A6,6,0,0,1,26,35V34a1,1,0,0,1-1-1V31a7,7,0,0,1,14,0v2a1,1,0,0,1-1,1v1a6,6,0,0,1-3,5.188v2.119l3.6,1.346A6.8,6.8,0,0,1,43,49.99Z"/><path d="M37.9,45.527l-3.648-1.365-1.545,1.545a1,1,0,0,1-1.414,0l-1.545-1.544-3.656,1.373A4.767,4.767,0,0,0,23,50H41A4.79,4.79,0,0,0,37.9,45.527Z"/></g></svg>
